<svg width="64" height="64" viewBox="0 0 64 64" fill="none" xmlns="http://www.w3.org/2000/svg">
<path d="M60.4435 0.412602C57.4443 1.17185 54.0633 2.00703 51.1049 2.70301C49.4962 3.08264 48.0921 3.4243 47.983 3.46227C47.8739 3.48757 48.4192 3.98109 49.3463 4.68972C50.1915 5.32243 51.1322 6.05638 51.4321 6.30946L51.9774 6.76501L26.0067 30.8207L0.0495775 54.8637L0.00867872 59.4318C-0.0185872 61.95 0.0223117 64 0.0768434 64C0.145008 64 13.0009 52.0924 28.6515 37.5527L57.1171 11.0928L57.6896 11.5103C58.0032 11.7381 58.903 12.4088 59.6937 12.9909L61.1251 14.0412L61.166 13.6236C61.1797 13.3832 61.3569 11.3965 61.5341 9.20728C62.0522 3.13326 62.2839 0.564452 62.3657 0.248097C62.4475 -0.106221 62.4612 -0.106221 60.4435 0.412602Z" fill="#EA5D30"/>
<path d="M0.0904681 29.7704C0.0632022 41.2224 0.0904681 50.5739 0.145 50.5612C0.185899 50.5359 2.66709 48.2708 5.66634 45.5248L11.0923 40.5264L11.1604 29.8969L11.2286 19.2674L22.5439 19.2294L33.8593 19.2041L39.3806 14.0791L44.9019 8.95419H22.5167H0.117734L0.0904681 29.7704Z" fill="#EA5D30"/>
<path d="M53.9406 18.4069L50.0279 22.0513L50.6414 22.684C51.4185 23.4939 52.1683 24.7213 52.5909 25.8476C53.0272 27.0624 53.1499 29.6438 52.8227 30.846C52.0456 33.6932 50.0825 35.5407 46.8787 36.4265C45.8971 36.7049 45.6108 36.7175 39.9259 36.7555L33.9956 36.8061L33.682 37.1478C33.5048 37.3376 30.86 39.8305 27.779 42.6903L22.2031 47.8785V54.8004V61.7222H27.5608H32.905V54.4208V47.1066L39.8577 47.0307C47.6422 46.9421 47.983 46.9168 50.9004 46.0184C53.8997 45.0946 56.6535 43.5128 58.6848 41.5767C61.3024 39.0712 62.802 36.3632 63.6609 32.5543C64.1107 30.5802 64.1107 26.8599 63.6745 24.8858C62.911 21.4439 61.4114 18.6473 58.8484 15.8128C58.3167 15.2433 57.8805 14.7751 57.8669 14.7751C57.8669 14.7751 56.0946 16.4075 53.9406 18.4069Z" fill="#EA5D30"/>
<path d="M16.0067 23.4737C16.0067 23.4885 15.9905 25.9506 15.958 28.9466L15.9256 34.4046L21.8128 29.0356C25.0402 26.0692 27.6837 23.6072 27.6837 23.533C27.6837 23.444 16.0067 23.3847 16.0067 23.4737Z" fill="#EA5D30"/>
</svg>
